<?xml version="1.0" standalone="no"?>
<!DOCTYPE svg PUBLIC "-//W3C//DTD SVG 20010904//EN"
 "http://www.w3.org/TR/2001/REC-SVG-20010904/DTD/svg10.dtd">
<svg version="1.0" xmlns="http://www.w3.org/2000/svg"
 width="352.000000pt" height="104.000000pt" viewBox="0 0 352.000000 104.000000"
 preserveAspectRatio="xMidYMid meet">

<g transform="translate(0.000000,104.000000) scale(0.100000,-0.100000)"
fill="#000000" stroke="none">
<path d="M0 635 c0 -223 2 -405 5 -405 2 0 20 8 40 17 39 19 41 25 24 120 -10
55 -9 67 6 89 9 14 15 34 12 44 -6 22 32 59 84 82 24 11 52 38 80 79 24 34 49
64 56 66 13 5 38 -100 28 -117 -10 -17 -24 -11 -38 17 -14 26 -15 26 -21 5
-19 -67 -22 -62 34 -62 28 0 71 -5 96 -11 34 -9 47 -9 59 1 13 11 21 8 49 -19
l33 -32 12 56 c12 55 24 68 35 40 6 -17 36 -21 36 -5 0 6 13 17 29 23 34 14
101 72 101 87 0 6 13 10 30 10 40 0 52 -25 34 -69 -8 -19 -12 -36 -10 -39 8
-8 86 41 86 55 0 18 35 16 50 -2 7 -8 17 -15 22 -15 13 0 47 42 48 59 0 20 98
111 119 111 12 0 28 23 52 72 19 40 49 90 68 110 l33 38 -646 0 -646 0 0 -405z
m575 63 c-54 -29 -85 -55 -85 -70 0 -11 -8 -18 -20 -18 -27 0 -26 31 3 57 34
31 59 42 92 42 27 0 28 -1 10 -11z"/>
<path d="M1300 1032 c0 -4 5 -13 10 -18 7 -7 4 -19 -10 -36 -22 -29 -17 -58
10 -58 15 0 22 -15 34 -69 9 -39 16 -94 16 -124 0 -41 6 -61 25 -87 25 -33 49
-103 43 -120 -2 -5 -21 4 -43 19 -37 25 -41 33 -59 109 -22 97 -39 103 -46 16
-3 -41 -14 -76 -36 -114 -25 -43 -33 -72 -39 -131 -6 -71 -5 -77 13 -81 11 -3
26 -1 32 6 9 8 16 5 30 -12 27 -33 40 -84 47 -179 6 -78 5 -83 -14 -83 -22 0
-33 32 -33 93 0 29 -1 29 -19 13 -22 -20 -61 -14 -104 18 -22 16 -33 18 -55
10 -25 -9 -27 -13 -24 -57 3 -36 0 -47 -11 -47 -8 0 -34 -13 -58 -30 -48 -32
-98 -38 -138 -16 -26 14 -74 10 -64 -7 9 -16 -27 -38 -46 -28 -10 6 -28 4 -46
-4 -25 -11 204 -14 1388 -14 l1417 -1 0 110 0 110 -45 0 -45 0 0 45 c0 59 -19
59 -48 0 -20 -42 -24 -45 -62 -45 -22 0 -40 2 -40 5 0 2 10 25 22 49 l21 45
-22 18 c-32 26 -31 77 3 111 24 25 34 27 121 30 l95 4 0 279 0 279 -1110 0
c-610 0 -1110 -4 -1110 -8z m727 -488 c62 -46 63 -151 3 -194 -18 -13 -53 -24
-85 -27 l-55 -6 0 -48 0 -49 -45 0 -45 0 0 176 0 176 99 -4 c82 -2 105 -7 128
-24z m283 -83 c77 -54 75 -175 -5 -227 -29 -19 -112 -22 -144 -5 -60 33 -80
139 -38 202 38 57 128 71 187 30z m261 19 c42 -12 76 -45 81 -80 3 -23 -1 -25
-39 -28 -35 -3 -42 0 -48 18 -5 16 -13 20 -33 18 -33 -4 -50 -45 -36 -85 12
-36 59 -45 69 -14 5 17 15 21 51 21 24 0 44 -2 44 -5 0 -3 -6 -21 -14 -40 -23
-53 -63 -71 -149 -67 -18 1 -42 15 -63 36 -31 31 -34 39 -34 95 0 86 33 121
130 140 3 0 21 -4 41 -9z m290 0 c41 -12 74 -44 83 -82 6 -27 5 -28 -38 -28
-36 0 -46 4 -51 21 -5 15 -14 19 -33 17 -33 -4 -50 -45 -36 -85 12 -36 59 -45
69 -14 5 17 15 21 51 21 24 0 44 -2 44 -5 0 -3 -6 -21 -14 -40 -23 -53 -63
-71 -149 -67 -18 1 -42 15 -64 37 -34 34 -35 37 -31 100 5 88 32 115 128 134
3 0 21 -4 41 -9z m211 -67 l3 -68 35 68 34 67 48 0 48 0 0 -130 0 -130 -45 0
-44 0 -3 68 -3 67 -35 -67 c-34 -68 -34 -68 -77 -68 l-43 0 0 130 0 130 40 0
39 0 3 -67z m-1728 -89 c48 -58 55 -74 34 -74 -12 0 -88 107 -88 123 0 14 8 6
54 -49z"/>
<path d="M1890 445 c0 -45 0 -45 35 -45 28 0 38 5 46 24 17 37 -3 66 -46 66
-35 0 -35 0 -35 -45z"/>
<path d="M2204 394 c-24 -36 -9 -98 25 -102 29 -5 41 12 41 60 0 34 -20 68
-40 68 -5 0 -17 -12 -26 -26z"/>
<path d="M3366 395 c-3 -8 3 -19 14 -25 32 -17 50 -12 50 15 0 21 -5 25 -29
25 -16 0 -31 -6 -35 -15z"/>
<path d="M160 175 c0 -39 -3 -47 -24 -55 -18 -6 -28 -21 -36 -50 -6 -22 -14
-40 -19 -40 -4 0 -24 42 -44 93 l-36 92 0 -107 -1 -108 338 0 337 1 -46 24
c-35 18 -50 34 -63 65 -11 27 -22 40 -35 40 -11 0 -28 11 -39 25 -15 19 -33
26 -74 31 l-55 6 -6 -30 c-6 -30 -8 -31 -37 -21 -17 6 -42 26 -57 45 -21 28
-32 34 -64 34 l-39 0 0 -45z"/>
</g>
</svg>
